<?xml version="1.0" encoding="UTF-8"?>
<svg version="1.1" xmlns="http://www.w3.org/2000/svg" width="2268" height="2268">
<path d="M0 0 C3.62189197 3.38383334 6.4541084 7.14775003 9.375 11.125 C13.88544749 17.20432937 18.46670237 23.22068467 23.125 29.1875 C23.71684082 29.94587158 24.30868164 30.70424316 24.91845703 31.4855957 C26.07544443 32.96799583 27.23250593 34.45033813 28.38964844 35.93261719 C32.28602331 40.93481586 36.13962505 45.97000814 40 51 C41.66609253 53.16710847 43.33305199 55.33354953 45 57.5 C45.83334905 58.58332124 46.66668241 59.66665456 47.5 60.75 C48.11875 61.554375 48.11875 61.554375 48.75 62.375 C90.625 116.8125 90.625 116.8125 132.5 171.25 C132.9122583 171.78592773 133.3245166 172.32185547 133.74926758 172.87402344 C134.58507376 173.96058779 135.42084835 175.04717645 136.2565918 176.13378906 C138.30183636 178.79288548 140.34769991 181.4514994 142.39453125 184.109375 C147.66896038 190.96016824 152.92625547 197.82383909 158.17626953 204.69335938 C163.10385391 211.13947094 168.04943004 217.57152742 173 224 C174.66695292 226.16644651 176.33347413 228.33322497 178 230.5 C178.83332547 231.58333938 179.6666588 232.66667272 180.5 233.75 C215.5 279.25 250.5 324.75 285.5 370.25 C285.9122583 370.78592773 286.3245166 371.32185547 286.74926758 371.87402344 C287.58507376 372.96058779 288.42084835 374.04717645 289.2565918 375.13378906 C291.30183636 377.79288548 293.34769991 380.4514994 295.39453125 383.109375 C300.66896038 389.96016824 305.92625547 396.82383909 311.17626953 403.69335938 C316.10385391 410.13947094 321.04943004 416.57152742 326 423 C327.66695292 425.16644652 329.33345856 427.33323695 331 429.5 C331.41056641 430.03367187 331.82113281 430.56734375 332.24414062 431.1171875 C334.3653427 433.8744172 336.48592017 436.63212397 338.60546875 439.390625 C339.03424316 439.94838623 339.46301758 440.50614746 339.90478516 441.08081055 C340.75008454 442.18079377 341.59482483 443.28120689 342.43896484 444.38208008 C345.51740629 448.39168544 348.65001782 452.35566729 351.8203125 456.29296875 C353 458 353 458 353 460 C358.53027742 456.02397762 363.579779 451.76692747 368.5 447.0625 C369.81815972 445.81680753 371.13716014 444.57200403 372.45703125 443.328125 C373.07529785 442.74482422 373.69356445 442.16152344 374.33056641 441.56054688 C376.82402145 439.22972432 379.39381645 436.99551744 381.98046875 434.76953125 C384.69486193 432.3911558 387.34572387 429.94491095 390 427.5 C393.90974355 423.89979545 397.85866671 420.35582218 401.875 416.875 C404.61823418 414.45449925 407.30884568 411.97799358 410 409.5 C413.90981595 405.89987244 417.85866468 402.35582395 421.875 398.875 C424.61823418 396.45449925 427.30884568 393.97799358 430 391.5 C433.90981595 387.89987244 437.85866468 384.35582395 441.875 380.875 C444.61823418 378.45449925 447.30884568 375.97799358 450 373.5 C453.90981595 369.89987244 457.85866468 366.35582395 461.875 362.875 C464.61823418 360.45449925 467.30884568 357.97799358 470 355.5 C473.90981595 351.89987244 477.85866468 348.35582395 481.875 344.875 C484.61823418 342.45449925 487.30884568 339.97799358 490 337.5 C493.90981595 333.89987244 497.85866468 330.35582395 501.875 326.875 C504.61823418 324.45449925 507.30884568 321.97799358 510 319.5 C513.90981595 315.89987244 517.85866468 312.35582395 521.875 308.875 C524.61823418 306.45449925 527.30884568 303.97799358 530 301.5 C533.90981595 297.89987244 537.85866468 294.35582395 541.875 290.875 C544.61823418 288.45449925 547.30884568 285.97799358 550 283.5 C553.90981595 279.89987244 557.85866468 276.35582395 561.875 272.875 C564.61823418 270.45449925 567.30884568 267.97799358 570 265.5 C573.90981595 261.89987244 577.85866468 258.35582395 581.875 254.875 C584.61823418 252.45449925 587.30884568 249.97799358 590 247.5 C593.90981595 243.89987244 597.85866468 240.35582395 601.875 236.875 C604.61823418 234.45449925 607.30884568 231.97799358 610 229.5 C613.90981595 225.89987244 617.85866468 222.35582395 621.875 218.875 C624.61823418 216.45449925 627.30884568 213.97799358 630 211.5 C633.90981595 207.89987244 637.85866468 204.35582395 641.875 200.875 C644.61823494 198.45449858 647.30881243 195.97795822 650 193.5 C653.95859723 189.8558306 657.95176832 186.26086221 662.015625 182.734375 C666.05374691 179.20499286 670.01914681 175.59365774 674 172 C675.66640851 170.49971321 677.33307353 168.99971128 679 167.5 C680.2375 166.38625 680.2375 166.38625 681.5 165.25 C689 158.5 689 158.5 691.48046875 156.2734375 C693.21997175 154.70383945 694.95126606 153.12511297 696.67578125 151.5390625 C697.54589844 150.74242187 698.41601562 149.94578125 699.3125 149.125 C700.09238281 148.40570312 700.87226562 147.68640625 701.67578125 146.9453125 C704.00077406 144.99935213 706.36168893 143.48492552 709 142 C712.18194437 149.57281484 714.78196958 157.2614423 717.24609375 165.09375 C717.65286754 166.37701892 718.05998713 167.66017827 718.46742249 168.9432373 C719.33852532 171.68885276 720.20730653 174.43518744 721.07421875 177.18212891 C722.46371003 181.58484578 723.8584215 185.98589849 725.25390625 190.38671875 C726.95872051 195.76413684 728.66236435 201.1419228 730.36445808 206.52020264 C733.34014912 215.92236278 736.32501007 225.32157554 739.31640625 234.71875 C739.63828069 235.72990623 739.63828069 235.72990623 739.96665764 236.76148987 C741.04583532 240.15150435 742.12518783 243.54146314 743.20462036 246.93139648 C745.16830693 253.0986045 747.13042335 259.26631212 749.09267998 265.43397522 C750.18672441 268.87266995 751.2808671 272.31133342 752.375 275.75 C752.81250047 277.12499985 753.25000047 278.49999985 753.6875 279.875 C754.01234375 280.8959375 754.01234375 280.8959375 754.34375 281.9375 C755 284 755.65625 286.0625 756.3125 288.125 C756.52906281 288.80562594 756.74562563 289.48625189 756.96875095 290.18750286 C757.40624788 291.56249329 757.8437447 292.93748375 758.28124142 294.31247425 C759.37503759 297.75012095 760.46883558 301.18776706 761.56263733 304.62541199 C763.53083795 310.81115963 765.49902587 316.99691132 767.46714497 323.1826849 C768.56011881 326.61788657 769.65310343 330.05308482 770.74609375 333.48828125 C770.96253477 334.16854181 771.17897579 334.84880238 771.40197563 335.5496769 C774.47553595 345.20961025 777.54970442 354.86934991 780.62424088 364.52897263 C789.63340099 392.8343908 798.6353202 421.14207881 807.62046051 449.45513153 C814.21773035 470.24360013 820.82349569 491.02934941 827.4375 511.8125 C827.65491852 512.49569305 827.87233704 513.17888611 828.09634399 513.88278198 C830.07638086 520.10456303 832.05654559 526.32630338 834.03683472 532.54800415 C837.10970762 542.20241162 840.18202708 551.85699505 843.25390625 561.51171875 C843.47035231 562.19199442 843.68679836 562.87227009 843.90980339 563.57316017 C845.0027125 567.00811135 846.09561196 570.44306561 847.18850708 573.87802124 C849.15684565 580.06446864 851.1252698 586.25088881 853.09368706 592.43731117 C854.1874615 595.87487301 855.28123048 599.31243659 856.375 602.75 C856.81249997 604.12500001 857.24999997 605.50000001 857.6875 606.875 C890.18311691 709.00408173 890.18311691 709.00408173 923.36248779 813.28210449 C923.58907168 813.99422435 923.81565557 814.7063442 924.04910564 815.44004345 C924.50842855 816.88363164 924.96774925 818.32722053 925.42706776 819.77081013 C926.57444989 823.37690158 927.72186987 826.98298098 928.86936951 830.58903503 C930.88664817 836.92852218 932.9037012 843.26808044 934.91923428 849.60812283 C935.99024841 852.9770866 937.06147229 856.34598366 938.1328125 859.71484375 C938.443903 860.6931034 938.443903 860.6931034 938.76127815 861.69112587 C941.28786963 869.63497344 943.82277442 877.57610442 946.36979675 885.51342773 C947.71153488 889.69473814 949.05053222 893.87692398 950.38943481 898.05914307 C951.28700321 900.85799439 952.1891919 903.6553276 953.09155273 906.45263672 C953.61987565 908.10246007 954.14796794 909.7523573 954.67578125 911.40234375 C954.91525482 912.13949112 955.15472839 912.87663849 955.40145874 913.63612366 C956.32767515 916.546106 957 918.92482878 957 922 C489.06 922 21.12 922 -461 922 C-462.37633576 918.55916061 -463.36773074 915.82745193 -464.12612915 912.30075073 C-464.32656263 911.37919221 -464.52699612 910.45763369 -464.73350334 909.50814915 C-464.94729197 908.50369723 -465.16108059 907.49924532 -465.38134766 906.46435547 C-465.61382265 905.3894155 -465.84629765 904.31447554 -466.08581734 903.20696163 C-466.86600855 899.59457642 -467.63996406 895.98088283 -468.4140625 892.3671875 C-468.97250447 889.77633232 -469.5313175 887.18555996 -470.09063721 884.59489441 C-471.3005082 878.9879106 -472.50739682 873.3802918 -473.71234131 867.77224731 C-475.65126462 858.74874368 -477.59663561 849.72663649 -479.54345703 840.70483398 C-479.79118303 839.55679899 -479.79118303 839.55679899 -480.0439136 838.38557136 C-480.71861628 835.25884625 -481.39333994 832.13212567 -482.06813896 829.00542134 C-483.10414126 824.20500489 -484.13971058 819.40449527 -485.17497194 814.60391897 C-490.07779087 791.8701965 -495.00401177 769.14165723 -499.953125 746.41796875 C-500.19732028 745.29673316 -500.19732028 745.29673316 -500.4464488 744.15284634 C-502.42387074 735.07383405 -504.40235282 725.99505294 -506.38119614 716.91635036 C-509.57606986 702.25839004 -512.7687681 687.59995572 -515.9609375 672.94140625 C-516.1279002 672.17473664 -516.29486291 671.40806704 -516.46688509 670.61816502 C-524.00760697 635.99163933 -531.51562578 601.35805091 -539.01837921 566.72328186 C-541.75391708 554.09535577 -544.48977381 541.46749882 -547.2265625 528.83984375 C-547.386219 528.10318214 -547.54587549 527.36652053 -547.71037006 526.60753584 C-555.40890693 491.08751486 -563.14019288 455.57463734 -570.875 420.0625 C-573.53147161 407.86593368 -576.1878253 395.66934168 -578.84375 383.47265625 C-579.0090677 382.71348105 -579.1743854 381.95430585 -579.34471273 381.17212534 C-584.81010363 356.07338338 -590.26729906 330.97286705 -595.71875 305.87109375 C-595.89947713 305.0389423 -596.08020426 304.20679085 -596.26640797 303.34942269 C-600.19332713 285.26794416 -604.11842739 267.18607258 -608.03908777 249.10323584 C-609.38729349 242.8851605 -610.73573469 236.66713621 -612.08425617 230.44912934 C-612.41276344 228.93436556 -612.74125663 227.41959872 -613.06973553 225.90482879 C-617.16069855 207.03981025 -621.26821673 188.17861061 -625.41024399 169.32472229 C-626.7271496 163.32705446 -628.03997879 157.32849277 -629.35281563 151.32993317 C-630.50460126 146.07035911 -631.66400984 140.81254893 -632.82994843 135.55609512 C-633.51143287 132.47570997 -634.1858432 129.39381096 -634.85807037 126.31139374 C-635.16087741 124.93030238 -635.46676888 123.54988284 -635.7760849 122.17023468 C-636.18712664 120.33566689 -636.58636423 118.49846588 -636.98486328 116.66113281 C-637.2073172 115.65399231 -637.42977112 114.64685181 -637.65896606 113.60919189 C-637.99549928 111.03443423 -637.83317931 109.43423919 -637 107 C-632.25842584 111.08612126 -627.60432591 115.26005042 -623 119.5 C-619.69972313 122.53889412 -616.39050686 125.56156073 -613 128.5 C-609.60949156 131.43844065 -606.30033018 134.46116302 -603 137.5 C-599.04140277 141.1441694 -595.04823168 144.73913779 -590.984375 148.265625 C-586.94625309 151.79500714 -582.98085319 155.40634226 -579 159 C-577.33359149 160.50028679 -575.66692647 162.00028872 -574 163.5 C-509 222 -509 222 -444 280.5 C-443.17757812 281.23992187 -442.35515625 281.97984375 -441.5078125 282.7421875 C-439.81407106 284.26708244 -438.12138831 285.79315402 -436.4296875 287.3203125 C-432.68435744 290.69912708 -428.93481793 294.06895965 -425.125 297.375 C-421.15747276 300.82851561 -417.2915236 304.3900394 -413.42236328 307.95263672 C-410.64541318 310.50525763 -407.85036687 313.02968205 -405 315.5 C-401.0691075 318.9067735 -397.24803427 322.43002785 -393.421875 325.953125 C-390.64505943 328.50555143 -387.85019283 331.02983288 -385 333.5 C-381.0691075 336.9067735 -377.24803427 340.43002785 -373.421875 343.953125 C-370.64505943 346.50555143 -367.85019283 349.02983288 -365 351.5 C-361.0691075 354.9067735 -357.24803427 358.43002785 -353.421875 361.953125 C-350.64505943 364.50555143 -347.85019283 367.02983288 -345 369.5 C-341.0691075 372.9067735 -337.24803427 376.43002785 -333.421875 379.953125 C-330.64505943 382.50555143 -327.85019283 385.02983288 -325 387.5 C-321.0691075 390.9067735 -317.24803427 394.43002785 -313.421875 397.953125 C-310.03848211 401.0631124 -306.60988524 404.10903221 -303.1328125 407.11328125 C-301.41684209 408.63125508 -299.73111804 410.16952565 -298.0546875 411.73046875 C-297.53003906 412.21773437 -297.00539063 412.705 -296.46484375 413.20703125 C-295.43541149 414.16564261 -294.4091491 415.12767408 -293.38671875 416.09375 C-290.12890461 419.1244779 -286.71847402 421.57032626 -283 424 C-282.55162529 423.31637642 -282.55162529 423.31637642 -282.0941925 422.61894226 C-268.01821464 401.16302305 -253.8866349 379.74918409 -239.5 358.5 C-229.72890232 344.06734298 -220.06662026 329.56899363 -210.5 315 C-200.3416981 299.52993517 -190.06275981 284.14806359 -179.6875 268.82275391 C-170.52310903 255.28108245 -161.4749265 241.66790396 -152.5 228 C-142.3416981 212.52993517 -132.06275981 197.14806359 -121.6875 181.82275391 C-112.52310903 168.28108245 -103.4749265 154.66790396 -94.5 141 C-84.34435933 125.53398796 -74.06859332 110.15580422 -63.69555664 94.83483887 C-54.35958325 81.04073276 -45.14492188 67.17143233 -36 53.25 C-27.32855369 40.05023816 -18.61370905 26.88413008 -9.75 13.8125 C-9.07614258 12.81784729 -9.07614258 12.81784729 -8.38867188 11.80310059 C-1.19955506 1.19955506 -1.19955506 1.19955506 0 0 Z " fill="#F59E0A" transform="translate(886,531)"/>
<path d="M0 0 C444.51 0 889.02 0 1347 0 C1347 218.61259542 1347 218.61259542 1322 247 C1321.32453125 247.81855469 1320.6490625 248.63710937 1319.953125 249.48046875 C1301.68276415 270.98481683 1274.72820888 282.55672323 1247 285 C1244.18021627 285.12421151 1241.3670795 285.13526405 1238.54487598 285.12649983 C1237.73872853 285.12802638 1236.93258108 285.12955293 1236.10200491 285.13112573 C1233.4084329 285.13501366 1230.71491738 285.13181449 1228.02134514 285.12863445 C1226.05926877 285.12998152 1224.09719267 285.13176565 1222.13511705 285.13394669 C1216.72919074 285.13867917 1211.32328125 285.13717421 1205.9173541 285.13466892 C1200.04137487 285.13303724 1194.16539927 285.13717551 1188.2894212 285.14057809 C1177.98608874 285.14573574 1167.68276054 285.14718341 1157.37942696 285.14612198 C1146.32427531 285.14499745 1135.26912704 285.14603189 1124.21397591 285.14969444 C1123.51562274 285.1499241 1122.81726957 285.15015375 1122.09775419 285.15039036 C1119.25344104 285.151332 1116.4091279 285.15228769 1113.56481476 285.15326155 C1083.89327568 285.16340586 1054.2217385 285.16646754 1024.55019788 285.16705366 C1021.35638494 285.16711841 1018.162572 285.16718635 1014.96875906 285.16725707 C1014.1762065 285.16727408 1013.38365393 285.16729108 1012.56708462 285.1673086 C995.00409199 285.16771706 977.44109972 285.16990699 959.87810728 285.17241292 C952.64622452 285.17344127 945.41434176 285.1744313 938.182459 285.17542917 C937.38339612 285.17553975 936.58433325 285.17565034 935.76105635 285.17576428 C889.96980829 285.18208851 844.17856046 285.18621339 798.38731194 285.18575573 C796.67360658 285.18573995 794.95990123 285.18572422 793.24619588 285.18570852 C785.50895997 285.18563514 777.77172407 285.18554697 770.03448816 285.18545464 C766.58425964 285.18541351 763.13403113 285.18537337 759.68380261 285.18533332 C757.95690088 285.18531293 756.22999916 285.18529191 754.50309743 285.18527026 C699.89822104 285.18459004 645.29335114 285.19190692 590.68847656 285.20581055 C576.93110086 285.20931158 563.17372516 285.21278104 549.41634941 285.21607494 C548.56924965 285.21627782 547.72214989 285.21648069 546.84938045 285.21668971 C520.73989426 285.22290495 494.6304086 285.22667032 468.52092171 285.22793293 C467.70115291 285.22797288 466.88138411 285.22801283 466.03677383 285.22805399 C448.0405957 285.22890728 430.0444176 285.22916846 412.04823945 285.22888362 C405.60881113 285.22878713 399.16938281 285.22873509 392.72995449 285.22870489 C391.12799202 285.22869697 389.52602955 285.22868677 387.92406708 285.22867426 C362.40189124 285.22849797 336.87972096 285.23419495 311.35754672 285.24282808 C285.65030948 285.2514796 259.94307994 285.25366791 234.23584186 285.24706676 C230.68203807 285.24615448 227.12823428 285.2453112 223.57443047 285.24450874 C222.87780142 285.24434866 222.18117237 285.24418857 221.46343335 285.24402363 C210.44150553 285.24167238 199.41959102 285.24602414 188.3976657 285.25317993 C177.55461528 285.26007889 166.71158537 285.25965005 155.86853539 285.25198779 C150.07044774 285.24809571 144.27240727 285.24736108 138.4743229 285.25544515 C133.19579157 285.26274041 127.91734655 285.26076812 122.63881902 285.25152128 C120.74485979 285.24980517 118.85089374 285.25141125 116.95694146 285.25682249 C89.11733985 285.33101254 61.94365056 280.42270825 40 262 C39.15308594 261.29101562 38.30617188 260.58203125 37.43359375 259.8515625 C16.56015498 241.68689059 4.52379115 219.14274692 0 192 C0 128.64 0 65.28 0 0 Z " fill="#F49D0A" transform="translate(567,1594)"/>
<path d="" fill="#E69900" transform="translate(0,0)"/>
</svg>
